<?xml version="1.0" encoding="UTF-8" standalone="no"?>
<!-- Created with Inkscape (http://www.inkscape.org/) -->

<svg
   width="1080"
   height="1080"
   viewBox="0 0 285.74999 285.75"
   version="1.1"
   id="svg1"
   xml:space="preserve"
   inkscape:version="1.4.3 (0d15f75042, 2025-12-25)"
   sodipodi:docname="logo.svg"
   xmlns:inkscape="http://www.inkscape.org/namespaces/inkscape"
   xmlns:sodipodi="http://sodipodi.sourceforge.net/DTD/sodipodi-0.dtd"
   xmlns="http://www.w3.org/2000/svg"
   xmlns:svg="http://www.w3.org/2000/svg"><sodipodi:namedview
     id="namedview1"
     pagecolor="#010101"
     bordercolor="#000000"
     borderopacity="0.25"
     inkscape:showpageshadow="2"
     inkscape:pageopacity="0.0"
     inkscape:pagecheckerboard="0"
     inkscape:deskcolor="#d1d1d1"
     inkscape:document-units="mm"
     showguides="false"
     inkscape:zoom="0.72635022"
     inkscape:cx="228.53989"
     inkscape:cy="518.34499"
     inkscape:window-width="2560"
     inkscape:window-height="1559"
     inkscape:window-x="0"
     inkscape:window-y="0"
     inkscape:window-maximized="1"
     inkscape:current-layer="layer1" /><defs
     id="defs1"><inkscape:path-effect
       effect="fillet_chamfer"
       id="path-effect3"
       is_visible="true"
       lpeversion="1"
       nodesatellites_param="F,0,0,1,0,7.9374997,0,1 @ F,0,0,1,0,7.9374997,0,1 @ F,0,0,1,0,7.9374997,0,1"
       radius="30"
       unit="px"
       method="auto"
       mode="F"
       chamfer_steps="1"
       flexible="false"
       use_knot_distance="true"
       apply_no_radius="true"
       apply_with_radius="true"
       only_selected="false"
       hide_knots="false" /></defs><g
     inkscape:label="Layer 1"
     inkscape:groupmode="layer"
     id="layer1"><path
       id="path1"
       style="fill:none;fill-opacity:1;stroke:#ffffff;stroke-width:15.875;stroke-dasharray:none;stroke-opacity:1;paint-order:markers fill stroke"
       d="m 142.75681,52.368937 a 90.54426,90.54426 0 0 0 -90.544347,90.544353 90.54426,90.54426 0 0 0 12.257121,45.49068 90.54426,90.54426 0 0 0 0,4.6e-4 l -14.416949,42.55275 a 2.4907168,2.4907168 0 0 0 3.717469,2.88647 l 31.825184,-20.71067 a 90.54426,90.54426 0 0 0 57.161522,20.32466 90.54426,90.54426 0 0 0 90.54435,-90.54435 90.54426,90.54426 0 0 0 -90.54435,-90.544353 z" /><path
       style="font-weight:bold;font-size:85.3333px;font-family:'Amio Trial';-inkscape-font-specification:'Amio Trial Bold';white-space:pre;fill:#ffffff;fill-opacity:1;stroke-width:2.07699"
       d="m 136.17618,189.28153 c 24.45001,0 35.58254,-3.05382 54.82024,-16.9038 l -0.36205,-18.71059 c -15.48928,9.53323 -29.74667,15.4689 -46.8617,15.4689 -10.65321,0 -17.34199,-3.4175 -19.19308,-10.25259 27.38771,-1.43884 50.94181,-9.53307 58.6404,-32.0169 6.71315,-19.60578 -4.96015,-30.398082 -27.13983,-30.398082 -22.7036,0 -47.64293,13.670172 -57.989879,43.888402 -10.593222,30.93772 4.554389,48.92466 38.085899,48.92466 z m -9.98862,-47.84541 c 0.0733,-0.71931 0.37945,-1.61888 0.74935,-2.69816 5.44089,-13.84997 13.7191,-20.68495 22.27662,-20.68495 7.16035,0 9.77078,3.5973 7.79998,9.35316 -2.95632,8.63377 -13.90655,12.05132 -30.8258,14.02995 z"
       id="text1"
       aria-label="eko"
       sodipodi:nodetypes="sccscssssscssss" /></g></svg>
