<?xml version="1.0" encoding="UTF-8" standalone="no"?>
<!-- Created with Inkscape (http://www.inkscape.org/) -->

<svg
   width="1080"
   height="1080"
   viewBox="0 0 285.74999 285.75"
   version="1.1"
   id="svg1"
   xml:space="preserve"
   inkscape:version="1.4.3 (0d15f75042, 2025-12-25)"
   sodipodi:docname="logo.svg"
   inkscape:export-filename="../linux/assets/logo512.png"
   inkscape:export-xdpi="22.755556"
   inkscape:export-ydpi="22.755556"
   xmlns:inkscape="http://www.inkscape.org/namespaces/inkscape"
   xmlns:sodipodi="http://sodipodi.sourceforge.net/DTD/sodipodi-0.dtd"
   xmlns="http://www.w3.org/2000/svg"
   xmlns:svg="http://www.w3.org/2000/svg"><sodipodi:namedview
     id="namedview1"
     pagecolor="#010101"
     bordercolor="#000000"
     borderopacity="0.25"
     inkscape:showpageshadow="2"
     inkscape:pageopacity="0.0"
     inkscape:pagecheckerboard="0"
     inkscape:deskcolor="#d1d1d1"
     inkscape:document-units="mm"
     showguides="false"
     inkscape:zoom="0.72635022"
     inkscape:cx="228.53989"
     inkscape:cy="518.34499"
     inkscape:window-width="2560"
     inkscape:window-height="1559"
     inkscape:window-x="0"
     inkscape:window-y="0"
     inkscape:window-maximized="1"
     inkscape:current-layer="layer1"><inkscape:page
       x="0"
       y="0"
       width="285.75"
       height="285.75"
       id="page2"
       margin="0"
       bleed="0" /></sodipodi:namedview><defs
     id="defs1" /><g
     inkscape:label="Layer 1"
     inkscape:groupmode="layer"
     id="layer1"><path
       id="path1"
       style="fill:#000000;fill-opacity:1;stroke:#ffffff;stroke-width:18.069;stroke-dasharray:none;stroke-opacity:1;paint-order:markers fill stroke"
       d="M 146.26649,37.438321 A 103.05797,103.05797 0 0 0 43.208429,140.4964 a 103.05797,103.05797 0 0 0 13.951122,51.77774 103.05797,103.05797 0 0 0 0,5.2e-4 l -16.40945,48.43377 a 2.8349474,2.8349474 0 0 0 4.231244,3.2854 l 36.223597,-23.573 A 103.05797,103.05797 0 0 0 146.26649,243.55447 103.05797,103.05797 0 0 0 249.32456,140.4964 103.05797,103.05797 0 0 0 146.26649,37.438321 Z" /><path
       style="font-weight:bold;font-size:85.3333px;font-family:'Amio Trial';-inkscape-font-specification:'Amio Trial Bold';white-space:pre;fill:#ffffff;fill-opacity:1;stroke-width:2.36404"
       d="m 138.77638,193.27298 c 27.82914,0 40.50024,-3.47587 62.3967,-19.24 l -0.41209,-21.29649 c -17.62998,10.85077 -33.85782,17.60678 -53.33824,17.60678 -12.12554,0 -19.73875,-3.88981 -21.84567,-11.66955 31.17284,-1.6377 57.98225,-10.85059 66.74482,-36.44181 7.64095,-22.315407 -5.64567,-34.599264 -30.8907,-34.599264 -25.84136,0 -54.22743,15.559464 -66.004389,49.954024 -12.057263,35.21348 5.183829,55.68631 43.349569,55.68631 z m -11.3691,-54.45791 c 0.0834,-0.81872 0.43189,-1.84261 0.85292,-3.07106 6.19285,-15.76411 15.61515,-23.54372 25.35537,-23.54372 8.14995,0 11.12115,4.09447 8.87798,10.64582 -3.3649,9.827 -15.82851,13.71688 -35.0861,15.96896 z"
       id="text1"
       aria-label="eko"
       sodipodi:nodetypes="sccscssssscssss" /></g></svg>
